<svg width="501" height="500" viewBox="0 0 501 500" fill="none" xmlns="http://www.w3.org/2000/svg">
<path d="M442.83 98.13C441.026 94.1098 438.937 90.2233 436.58 86.5C422.88 66.88 397.89 48.27 352.32 47.33C254.44 45.33 282.86 210.21 158.47 225.11C40.23 239.19 29.62 354 66.81 393C118.81 440.71 170.3 461.7 282.72 457C368.83 453.43 424.83 436.23 452.07 402.13C469.15 380.74 477.34 352.78 480.07 318.39C486.36 238.63 461.5 138.56 442.83 98.13Z" fill="#FF725E"/>
<path opacity="0.7" d="M442.83 98.13C441.026 94.1098 438.937 90.2233 436.58 86.5C422.88 66.88 397.89 48.27 352.32 47.33C254.44 45.33 282.86 210.21 158.47 225.11C40.23 239.19 29.62 354 66.81 393C118.81 440.71 170.3 461.7 282.72 457C368.83 453.43 424.83 436.23 452.07 402.13C469.15 380.74 477.34 352.78 480.07 318.39C486.36 238.63 461.5 138.56 442.83 98.13Z" fill="white"/>
<path d="M452.07 402.2C424.83 436.3 368.83 453.5 282.72 457.07C170.3 461.73 118.85 440.74 66.81 393.07H442.81L452.07 402.2Z" fill="#999999"/>
<path d="M21.43 393.03H438.47" stroke="#263238" stroke-linecap="round" stroke-linejoin="round"/>
<path d="M442.83 82.8V393.03L470.4 420.6" stroke="#263238" stroke-linecap="round" stroke-linejoin="round"/>
<path d="M360.48 101.17V47.23" stroke="#263238" stroke-linecap="round" stroke-linejoin="round"/>
<path d="M337.2 124.45C337.136 121.353 337.69 118.274 338.831 115.394C339.972 112.514 341.676 109.891 343.844 107.678C346.011 105.465 348.599 103.706 351.455 102.506C354.311 101.306 357.377 100.688 360.475 100.688C363.573 100.688 366.639 101.306 369.495 102.506C372.351 103.706 374.938 105.465 377.106 107.678C379.274 109.891 380.978 112.514 382.119 115.394C383.26 118.274 383.814 121.353 383.75 124.45H337.2Z" stroke="#263238" stroke-linecap="round" stroke-linejoin="round"/>
<path d="M66.81 393.03H47.75" stroke="#263238" stroke-linecap="round" stroke-linejoin="round"/>
<path d="M144.07 268.8H124.08V393.04H144.07V268.8Z" stroke="#263238" stroke-linecap="round" stroke-linejoin="round"/>
<path d="M116.93 278.02H36.16V308.19H116.93V278.02Z" stroke="#263238" stroke-linecap="round" stroke-linejoin="round"/>
<path d="M116.93 311.48H36.16V341.65H116.93V311.48Z" stroke="#263238" stroke-linecap="round" stroke-linejoin="round"/>
<path d="M116.93 344.95H36.16V375.12H116.93V344.95Z" stroke="#263238" stroke-linecap="round" stroke-linejoin="round"/>
<path d="M68.05 280.2C68.05 281.091 68.404 281.946 69.0341 282.576C69.6642 283.206 70.5189 283.56 71.41 283.56H81.68C82.1221 283.561 82.5601 283.475 82.9689 283.307C83.3777 283.139 83.7493 282.892 84.0623 282.579C84.3754 282.267 84.6238 281.896 84.7933 281.488C84.9627 281.08 85.05 280.642 85.05 280.2" stroke="#263238" stroke-linecap="round" stroke-linejoin="round"/>
<path d="M68.05 313.66C68.0579 314.547 68.415 315.395 69.044 316.02C69.673 316.645 70.5231 316.997 71.41 317H81.68C82.5738 317 83.4309 316.645 84.0629 316.013C84.6949 315.381 85.05 314.524 85.05 313.63" stroke="#263238" stroke-linecap="round" stroke-linejoin="round"/>
<path d="M68.05 347.13C68.05 348.022 68.4037 348.878 69.0335 349.509C69.6633 350.141 70.5179 350.497 71.41 350.5H81.68C82.1225 350.5 82.5608 350.413 82.9696 350.243C83.3785 350.074 83.75 349.826 84.0629 349.513C84.3759 349.2 84.6241 348.829 84.7935 348.42C84.9628 348.011 85.05 347.573 85.05 347.13" stroke="#263238" stroke-linecap="round" stroke-linejoin="round"/>
<path d="M120.81 393.04H29.62V268.8H120.81" stroke="#263238" stroke-linecap="round" stroke-linejoin="round"/>
<path d="M198.7 332.72V379.72L223.31 388.39C223.617 388.498 223.882 388.698 224.07 388.963C224.259 389.228 224.36 389.545 224.36 389.87V391.33C224.361 391.573 224.304 391.812 224.196 392.03C224.088 392.247 223.93 392.436 223.736 392.581C223.542 392.727 223.316 392.825 223.077 392.868C222.839 392.912 222.593 392.898 222.36 392.83L197.08 385.41L196.62 391.48C196.592 391.903 196.403 392.299 196.093 392.587C195.782 392.875 195.374 393.033 194.95 393.03H193.65C193.228 393.029 192.822 392.869 192.512 392.581C192.203 392.294 192.013 391.901 191.98 391.48L191.52 385.41L166.25 392.83C166.017 392.896 165.772 392.908 165.534 392.864C165.296 392.82 165.072 392.721 164.878 392.576C164.684 392.431 164.527 392.243 164.418 392.027C164.309 391.81 164.252 391.572 164.25 391.33V389.87C164.25 389.545 164.351 389.228 164.54 388.963C164.728 388.698 164.993 388.498 165.3 388.39L189.92 379.72V332.72" stroke="#263238" stroke-linecap="round" stroke-linejoin="round"/>
<path d="M187.47 315.7V302.08" stroke="#263238" stroke-linecap="round" stroke-linejoin="round"/>
<path d="M181.7 302.08V315.7" stroke="#263238" stroke-linecap="round" stroke-linejoin="round"/>
<path d="M162.5 299.66C158.4 299.5 155.5 296.84 155.5 292.24V268.39C155.567 266.947 156.051 265.553 156.894 264.38C157.737 263.207 158.903 262.303 160.25 261.78" stroke="#263238" stroke-linecap="round" stroke-linejoin="round"/>
<path d="M161.37 265.37V292.14C161.37 296.76 165.06 299.31 169.71 298.49C179.854 296.621 190.289 297.079 200.23 299.83C204.81 301.07 208.41 298.83 208.41 294.23V267.46C208.352 266.291 207.96 265.163 207.281 264.21C206.603 263.257 205.665 262.518 204.58 262.08C191.909 257.79 178.279 257.19 165.28 260.35C164.185 260.673 163.219 261.331 162.518 262.232C161.817 263.132 161.415 264.23 161.37 265.37V265.37Z" stroke="#263238" stroke-linecap="round" stroke-linejoin="round"/>
<path d="M180.25 317.68H166.95C165.829 317.679 164.719 317.898 163.683 318.326C162.647 318.755 161.705 319.383 160.912 320.175C160.119 320.967 159.49 321.908 159.06 322.943C158.631 323.979 158.41 325.089 158.41 326.21V326.21C158.41 327.247 158.822 328.242 159.555 328.975C160.289 329.708 161.283 330.12 162.32 330.12H177.79" stroke="#263238" stroke-linecap="round" stroke-linejoin="round"/>
<path d="M182.34 330.12H226.26C227.297 330.12 228.292 329.708 229.025 328.975C229.758 328.242 230.17 327.247 230.17 326.21C230.17 325.089 229.949 323.979 229.52 322.943C229.09 321.908 228.461 320.967 227.668 320.175C226.875 319.383 225.933 318.755 224.897 318.326C223.861 317.898 222.751 317.679 221.63 317.68H186.97C185.849 317.679 184.739 317.898 183.703 318.326C182.667 318.755 181.725 319.383 180.932 320.175C180.139 320.967 179.51 321.908 179.08 322.943C178.651 323.979 178.43 325.089 178.43 326.21V326.21C178.43 327.247 178.842 328.242 179.575 328.975C180.308 329.708 181.303 330.12 182.34 330.12V330.12Z" stroke="#263238" stroke-linecap="round" stroke-linejoin="round"/>
<path d="M389.13 247.84C389.653 247.829 390.154 247.63 390.542 247.279C390.93 246.928 391.177 246.449 391.24 245.93L395.62 205.16C395.653 204.919 395.634 204.674 395.563 204.441C395.493 204.209 395.372 203.994 395.211 203.813C395.049 203.631 394.85 203.487 394.627 203.39C394.404 203.292 394.163 203.245 393.92 203.25" stroke="#263238" stroke-linecap="round" stroke-linejoin="round"/>
<path d="M280.8 285.36H421.74V272.28H280.8V285.36Z" stroke="#263238" stroke-linecap="round" stroke-linejoin="round"/>
<path d="M230.63 272.27V285.35H278.62" stroke="#263238" stroke-linecap="round" stroke-linejoin="round"/>
<path d="M426.27 270.87V262.69H288.84" stroke="#263238" stroke-linecap="round" stroke-linejoin="round"/>
<path d="M226.09 270.88H286.65V262.7H226.09V270.88Z" stroke="#263238" stroke-linecap="round" stroke-linejoin="round"/>
<path d="M414.09 287.54V393.03H417.14L418.24 287.54" stroke="#263238" stroke-linecap="round" stroke-linejoin="round"/>
<path d="M409.95 287.54L411.04 393.03H414.09V287.54" stroke="#263238" stroke-linecap="round" stroke-linejoin="round"/>
<path d="M373.79 287.54V393.03H376.84L377.93 287.54" stroke="#263238" stroke-linecap="round" stroke-linejoin="round"/>
<path d="M369.65 287.54L370.74 393.03H373.79V287.54" stroke="#263238" stroke-linecap="round" stroke-linejoin="round"/>
<path d="M278.57 287.54V393.03H281.63L282.72 287.54" stroke="#263238" stroke-linecap="round" stroke-linejoin="round"/>
<path d="M274.43 287.54L275.52 393.03H278.57V287.54" stroke="#263238" stroke-linecap="round" stroke-linejoin="round"/>
<path d="M238.27 287.54V393.03H241.32L242.41 287.54" stroke="#263238" stroke-linecap="round" stroke-linejoin="round"/>
<path d="M234.13 287.54L235.22 393.03H238.27V287.54" stroke="#263238" stroke-linecap="round" stroke-linejoin="round"/>
<path d="M341.46 260.15H311.81V262.69H341.46V260.15Z" stroke="#263238" stroke-linecap="round" stroke-linejoin="round"/>
<path d="M395.95 262.69H389.07C388.611 262.69 388.171 262.508 387.847 262.183C387.522 261.859 387.34 261.419 387.34 260.96V258.78H397.68V260.96C397.68 261.419 397.498 261.859 397.173 262.183C396.849 262.508 396.409 262.69 395.95 262.69Z" stroke="#263238" stroke-linecap="round" stroke-linejoin="round"/>
<path d="M397.68 258.8C397.68 257.32 395.36 256.11 392.5 256.11C389.64 256.11 387.33 257.32 387.33 258.8H397.68Z" stroke="#263238" stroke-linecap="round" stroke-linejoin="round"/>
<path d="M387.33 258.8C387.33 257.32 389.65 256.11 392.5 256.11V258.8H387.33Z" stroke="#263238" stroke-linecap="round" stroke-linejoin="round"/>
<path d="M386.98 247.84H329.18C328.937 247.845 328.696 247.798 328.473 247.7C328.25 247.603 328.051 247.459 327.889 247.277C327.728 247.096 327.607 246.881 327.537 246.649C327.466 246.416 327.447 246.171 327.48 245.93L331.86 205.16C331.925 204.642 332.173 204.164 332.56 203.813C332.948 203.463 333.448 203.263 333.97 203.25H391.78C392.023 203.246 392.263 203.295 392.485 203.393C392.707 203.491 392.905 203.635 393.067 203.816C393.228 203.997 393.348 204.211 393.42 204.443C393.491 204.675 393.512 204.919 393.48 205.16L389.1 245.93C389.037 246.451 388.788 246.931 388.398 247.282C388.008 247.634 387.505 247.832 386.98 247.84Z" stroke="#263238" stroke-linecap="round" stroke-linejoin="round"/>
<path d="M366.44 248.93L367.43 258.11H369.61L368.62 248.93" stroke="#263238" stroke-linecap="round" stroke-linejoin="round"/>
<path d="M352.26 248.93L353.25 258.11H367.43L366.44 248.93" stroke="#263238" stroke-linecap="round" stroke-linejoin="round"/>
<path d="M384.57 244.89H332.23C332.019 244.895 331.809 244.854 331.615 244.77C331.421 244.685 331.247 244.56 331.106 244.402C330.966 244.244 330.861 244.058 330.799 243.855C330.738 243.653 330.721 243.44 330.75 243.23L334.55 207.86C334.605 207.408 334.822 206.991 335.16 206.686C335.498 206.381 335.935 206.209 336.39 206.2H388.73C388.941 206.195 389.151 206.236 389.345 206.32C389.539 206.405 389.713 206.53 389.854 206.688C389.994 206.846 390.099 207.032 390.161 207.235C390.222 207.437 390.239 207.651 390.21 207.86L386.41 243.23C386.355 243.682 386.138 244.099 385.8 244.404C385.462 244.709 385.025 244.881 384.57 244.89V244.89Z" stroke="#263238" stroke-linecap="round" stroke-linejoin="round"/>
<path d="M371.8 258.11H343.05V262.7H371.8V258.11Z" stroke="#263238" stroke-linecap="round" stroke-linejoin="round"/>
<path d="M380.21 258.11H371.8V262.7H380.21V258.11Z" stroke="#263238" stroke-linecap="round" stroke-linejoin="round"/>
<path d="M407.5 214.85H313.35V236.06H407.5V214.85Z" fill="white" stroke="#263238" stroke-linecap="round" stroke-linejoin="round"/>
<path d="M324.73 227.68L323.21 226.52L323.46 228.38C323.482 228.503 323.477 228.629 323.445 228.749C323.413 228.869 323.354 228.981 323.274 229.077C323.194 229.172 323.094 229.249 322.981 229.301C322.868 229.354 322.745 229.381 322.62 229.38C322.495 229.381 322.372 229.354 322.259 229.301C322.146 229.249 322.046 229.172 321.966 229.077C321.886 228.981 321.827 228.869 321.795 228.749C321.763 228.629 321.758 228.503 321.78 228.38L322.03 226.52L320.5 227.68C320.404 227.751 320.295 227.802 320.178 227.828C320.062 227.854 319.941 227.855 319.824 227.832C319.707 227.808 319.597 227.76 319.499 227.691C319.402 227.622 319.321 227.533 319.26 227.43C319.199 227.327 319.161 227.212 319.149 227.092C319.136 226.973 319.15 226.853 319.188 226.739C319.225 226.626 319.287 226.521 319.369 226.433C319.45 226.346 319.549 226.276 319.66 226.23L321.41 225.5L319.66 224.77C319.549 224.723 319.45 224.652 319.368 224.563C319.287 224.475 319.225 224.37 319.187 224.255C319.149 224.141 319.136 224.02 319.149 223.9C319.161 223.78 319.199 223.664 319.26 223.56C319.319 223.456 319.4 223.366 319.498 223.296C319.595 223.226 319.706 223.177 319.823 223.153C319.941 223.13 320.062 223.132 320.179 223.159C320.295 223.186 320.405 223.237 320.5 223.31L322.02 224.47L321.77 222.61C321.748 222.487 321.753 222.361 321.785 222.241C321.817 222.121 321.876 222.009 321.956 221.913C322.036 221.818 322.136 221.741 322.249 221.689C322.362 221.636 322.485 221.61 322.61 221.61C322.735 221.61 322.858 221.636 322.971 221.689C323.084 221.741 323.184 221.818 323.264 221.913C323.344 222.009 323.402 222.121 323.435 222.241C323.467 222.361 323.472 222.487 323.45 222.61L323.2 224.47L324.72 223.31C324.815 223.237 324.925 223.186 325.041 223.159C325.158 223.132 325.279 223.13 325.397 223.153C325.514 223.177 325.625 223.226 325.722 223.296C325.819 223.366 325.901 223.456 325.96 223.56C326.021 223.664 326.059 223.78 326.071 223.9C326.084 224.02 326.071 224.141 326.033 224.255C325.995 224.37 325.933 224.475 325.852 224.563C325.77 224.652 325.671 224.723 325.56 224.77L323.81 225.5L325.56 226.23C325.67 226.276 325.77 226.346 325.851 226.433C325.933 226.521 325.995 226.626 326.032 226.739C326.07 226.853 326.083 226.973 326.071 227.092C326.058 227.212 326.021 227.327 325.96 227.43C325.899 227.531 325.818 227.619 325.722 227.687C325.625 227.755 325.516 227.803 325.4 227.826C325.284 227.85 325.165 227.849 325.05 227.824C324.934 227.799 324.825 227.75 324.73 227.68Z" fill="#263238"/>
<path d="M338.3 227.68L336.78 226.52L337.03 228.38C337.052 228.503 337.047 228.629 337.015 228.749C336.983 228.869 336.924 228.981 336.844 229.077C336.764 229.172 336.664 229.249 336.551 229.301C336.438 229.354 336.315 229.38 336.19 229.38C336.066 229.381 335.943 229.354 335.83 229.302C335.717 229.249 335.618 229.172 335.538 229.076C335.459 228.981 335.402 228.869 335.371 228.748C335.34 228.628 335.336 228.502 335.36 228.38L335.61 226.52L334.09 227.68C333.993 227.751 333.883 227.802 333.766 227.828C333.649 227.854 333.527 227.856 333.41 227.832C333.292 227.809 333.18 227.761 333.082 227.691C332.984 227.622 332.902 227.533 332.84 227.43C332.781 227.326 332.745 227.21 332.734 227.091C332.723 226.972 332.738 226.851 332.776 226.738C332.815 226.625 332.877 226.521 332.959 226.434C333.041 226.346 333.14 226.277 333.25 226.23L334.99 225.5L333.25 224.77C333.139 224.722 333.04 224.652 332.958 224.563C332.877 224.475 332.814 224.37 332.776 224.256C332.737 224.142 332.723 224.021 332.734 223.901C332.745 223.781 332.781 223.665 332.84 223.56C332.9 223.456 332.982 223.365 333.081 223.295C333.179 223.225 333.29 223.177 333.409 223.153C333.527 223.129 333.649 223.131 333.766 223.158C333.884 223.185 333.994 223.237 334.09 223.31L335.61 224.47L335.36 222.61C335.336 222.488 335.34 222.362 335.371 222.242C335.402 222.121 335.459 222.009 335.538 221.913C335.618 221.818 335.717 221.741 335.83 221.688C335.943 221.636 336.066 221.609 336.19 221.61C336.315 221.61 336.438 221.636 336.551 221.689C336.664 221.741 336.764 221.818 336.844 221.913C336.924 222.009 336.983 222.121 337.015 222.241C337.047 222.361 337.052 222.487 337.03 222.61L336.78 224.47L338.3 223.31C338.395 223.237 338.505 223.185 338.621 223.158C338.738 223.131 338.859 223.13 338.977 223.153C339.094 223.177 339.205 223.226 339.302 223.296C339.4 223.366 339.481 223.456 339.54 223.56C339.601 223.664 339.639 223.78 339.651 223.9C339.664 224.02 339.651 224.141 339.613 224.255C339.575 224.37 339.513 224.475 339.432 224.563C339.35 224.652 339.251 224.723 339.14 224.77L337.4 225.5L339.14 226.23C339.251 226.276 339.35 226.346 339.431 226.433C339.513 226.521 339.575 226.626 339.612 226.739C339.65 226.853 339.663 226.973 339.651 227.092C339.638 227.212 339.601 227.327 339.54 227.43C339.479 227.533 339.398 227.622 339.301 227.691C339.203 227.76 339.093 227.808 338.976 227.832C338.859 227.855 338.738 227.854 338.622 227.828C338.505 227.802 338.396 227.751 338.3 227.68Z" fill="#263238"/>
<path d="M351.87 227.68L350.35 226.52L350.6 228.38C350.624 228.502 350.62 228.628 350.589 228.748C350.558 228.869 350.501 228.981 350.422 229.076C350.342 229.172 350.243 229.249 350.13 229.302C350.017 229.354 349.894 229.381 349.77 229.38C349.645 229.382 349.521 229.357 349.407 229.305C349.293 229.253 349.192 229.176 349.111 229.08C349.031 228.985 348.973 228.872 348.941 228.751C348.91 228.63 348.906 228.503 348.93 228.38L349.18 226.52L347.66 227.68C347.564 227.751 347.455 227.802 347.338 227.828C347.222 227.854 347.101 227.855 346.984 227.832C346.867 227.808 346.757 227.76 346.659 227.691C346.562 227.622 346.481 227.533 346.42 227.43C346.359 227.327 346.321 227.212 346.309 227.092C346.296 226.973 346.31 226.853 346.347 226.739C346.385 226.626 346.447 226.521 346.529 226.433C346.61 226.346 346.709 226.276 346.82 226.23L348.56 225.5L346.82 224.77C346.709 224.723 346.61 224.652 346.528 224.563C346.447 224.475 346.385 224.37 346.347 224.255C346.309 224.141 346.296 224.02 346.309 223.9C346.321 223.78 346.359 223.664 346.42 223.56C346.479 223.456 346.56 223.366 346.658 223.296C346.755 223.226 346.866 223.177 346.983 223.153C347.101 223.13 347.222 223.131 347.339 223.158C347.455 223.185 347.565 223.237 347.66 223.31L349.18 224.47L348.93 222.61C348.906 222.487 348.91 222.36 348.941 222.239C348.973 222.118 349.031 222.005 349.111 221.91C349.192 221.814 349.293 221.737 349.407 221.685C349.521 221.633 349.645 221.608 349.77 221.61C349.894 221.609 350.017 221.636 350.13 221.688C350.243 221.741 350.342 221.818 350.422 221.914C350.501 222.009 350.558 222.121 350.589 222.242C350.62 222.362 350.624 222.488 350.6 222.61L350.35 224.47L351.87 223.31C351.965 223.237 352.075 223.185 352.191 223.158C352.308 223.131 352.429 223.13 352.547 223.153C352.664 223.177 352.775 223.226 352.872 223.296C352.969 223.366 353.05 223.456 353.11 223.56C353.169 223.665 353.205 223.781 353.216 223.901C353.227 224.021 353.213 224.142 353.174 224.256C353.135 224.37 353.073 224.475 352.992 224.563C352.91 224.652 352.811 224.722 352.7 224.77L350.96 225.5L352.7 226.23C352.81 226.276 352.91 226.346 352.991 226.433C353.073 226.521 353.135 226.626 353.172 226.739C353.21 226.853 353.223 226.973 353.211 227.092C353.198 227.212 353.161 227.327 353.1 227.43C353.039 227.531 352.958 227.619 352.862 227.687C352.765 227.755 352.656 227.803 352.54 227.826C352.424 227.85 352.305 227.849 352.19 227.824C352.074 227.799 351.965 227.75 351.87 227.68Z" fill="#263238"/>
<path d="M365.5 227.68L363.97 226.52L364.22 228.38C364.244 228.502 364.24 228.628 364.209 228.748C364.178 228.869 364.121 228.981 364.042 229.076C363.962 229.172 363.863 229.249 363.75 229.302C363.637 229.354 363.514 229.381 363.39 229.38C363.265 229.38 363.142 229.354 363.029 229.301C362.916 229.249 362.816 229.172 362.736 229.077C362.656 228.981 362.597 228.869 362.565 228.749C362.533 228.629 362.528 228.503 362.55 228.38L362.8 226.52L361.28 227.68C361.184 227.751 361.075 227.802 360.958 227.828C360.842 227.854 360.721 227.855 360.604 227.832C360.487 227.808 360.377 227.76 360.279 227.691C360.182 227.622 360.101 227.533 360.04 227.43C359.979 227.327 359.941 227.212 359.929 227.092C359.916 226.973 359.93 226.853 359.967 226.739C360.005 226.626 360.067 226.521 360.149 226.433C360.23 226.346 360.329 226.276 360.44 226.23L362.19 225.5L360.44 224.77C360.329 224.723 360.23 224.652 360.148 224.563C360.067 224.475 360.005 224.37 359.967 224.255C359.929 224.141 359.916 224.02 359.929 223.9C359.941 223.78 359.979 223.664 360.04 223.56C360.099 223.456 360.18 223.366 360.278 223.296C360.375 223.226 360.486 223.177 360.603 223.153C360.721 223.13 360.842 223.131 360.958 223.158C361.075 223.185 361.185 223.237 361.28 223.31L362.8 224.47L362.55 222.61C362.528 222.487 362.533 222.361 362.565 222.241C362.597 222.121 362.656 222.009 362.736 221.913C362.816 221.818 362.916 221.741 363.029 221.689C363.142 221.636 363.265 221.61 363.39 221.61C363.514 221.609 363.637 221.636 363.75 221.688C363.863 221.741 363.962 221.818 364.042 221.913C364.121 222.009 364.178 222.121 364.209 222.242C364.24 222.362 364.244 222.488 364.22 222.61L363.97 224.47L365.5 223.31C365.595 223.237 365.705 223.185 365.821 223.158C365.938 223.131 366.059 223.13 366.177 223.153C366.294 223.177 366.405 223.226 366.502 223.296C366.599 223.366 366.68 223.456 366.74 223.56C366.799 223.664 366.836 223.78 366.847 223.9C366.859 224.019 366.846 224.14 366.808 224.254C366.77 224.368 366.709 224.472 366.629 224.561C366.548 224.65 366.45 224.721 366.34 224.77L364.59 225.5L366.33 226.23C366.44 226.277 366.539 226.346 366.621 226.434C366.703 226.521 366.765 226.625 366.804 226.738C366.842 226.851 366.857 226.972 366.846 227.091C366.835 227.21 366.799 227.326 366.74 227.43C366.679 227.533 366.598 227.622 366.501 227.691C366.403 227.76 366.293 227.808 366.176 227.832C366.059 227.855 365.938 227.854 365.822 227.828C365.705 227.802 365.596 227.751 365.5 227.68Z" fill="#263238"/>
<path d="M379.02 227.68L377.5 226.52L377.75 228.38C377.772 228.503 377.767 228.629 377.735 228.749C377.703 228.869 377.644 228.981 377.564 229.077C377.484 229.172 377.384 229.249 377.271 229.301C377.158 229.354 377.035 229.381 376.91 229.38C376.785 229.381 376.662 229.354 376.549 229.301C376.436 229.249 376.336 229.172 376.256 229.077C376.176 228.981 376.117 228.869 376.085 228.749C376.053 228.629 376.048 228.503 376.07 228.38L376.32 226.52L374.8 227.68C374.704 227.751 374.595 227.802 374.478 227.828C374.362 227.854 374.241 227.855 374.124 227.832C374.007 227.808 373.897 227.76 373.799 227.691C373.702 227.622 373.621 227.533 373.56 227.43C373.499 227.327 373.461 227.212 373.449 227.092C373.437 226.973 373.45 226.853 373.488 226.739C373.525 226.626 373.587 226.521 373.669 226.433C373.75 226.346 373.849 226.276 373.96 226.23L375.71 225.5L373.96 224.77C373.849 224.723 373.75 224.652 373.668 224.563C373.587 224.475 373.525 224.37 373.487 224.255C373.449 224.141 373.436 224.02 373.449 223.9C373.461 223.78 373.499 223.664 373.56 223.56C373.619 223.456 373.7 223.366 373.798 223.296C373.895 223.226 374.006 223.177 374.123 223.153C374.241 223.13 374.362 223.132 374.479 223.159C374.595 223.186 374.705 223.237 374.8 223.31L376.32 224.47L376.07 222.61C376.048 222.487 376.053 222.361 376.085 222.241C376.117 222.121 376.176 222.009 376.256 221.913C376.336 221.818 376.436 221.741 376.549 221.689C376.662 221.636 376.785 221.61 376.91 221.61C377.035 221.61 377.158 221.636 377.271 221.689C377.384 221.741 377.484 221.818 377.564 221.913C377.644 222.009 377.703 222.121 377.735 222.241C377.767 222.361 377.772 222.487 377.75 222.61L377.5 224.4L379.02 223.24C379.115 223.167 379.225 223.116 379.341 223.089C379.458 223.062 379.579 223.06 379.697 223.083C379.814 223.107 379.925 223.156 380.022 223.226C380.119 223.296 380.201 223.386 380.26 223.49C380.321 223.594 380.359 223.71 380.371 223.83C380.384 223.95 380.371 224.071 380.333 224.185C380.295 224.3 380.233 224.405 380.152 224.493C380.07 224.582 379.971 224.653 379.86 224.7L378.11 225.43L379.86 226.16C379.97 226.206 380.07 226.276 380.151 226.363C380.233 226.451 380.295 226.556 380.332 226.669C380.37 226.783 380.383 226.903 380.371 227.022C380.358 227.142 380.321 227.257 380.26 227.36C380.206 227.468 380.129 227.564 380.034 227.64C379.94 227.716 379.83 227.771 379.713 227.802C379.595 227.832 379.473 227.837 379.353 227.816C379.234 227.795 379.12 227.749 379.02 227.68Z" fill="#263238"/>
<path d="M401.71 225.46C401.71 225.46 398.94 228.91 395.53 228.91C392.12 228.91 389.36 225.46 389.36 225.46C389.36 225.46 392.12 222 395.5 222C398.88 222 401.71 225.46 401.71 225.46Z" fill="white" stroke="#263238" stroke-linecap="round" stroke-linejoin="round"/>
<path d="M397.66 225.46C397.662 225.882 397.539 226.294 397.306 226.646C397.073 226.998 396.741 227.272 396.352 227.435C395.963 227.598 395.534 227.641 395.121 227.56C394.707 227.479 394.326 227.277 394.027 226.98C393.729 226.682 393.525 226.303 393.442 225.889C393.359 225.476 393.4 225.047 393.561 224.657C393.722 224.267 393.995 223.934 394.346 223.7C394.696 223.465 395.108 223.34 395.53 223.34C395.809 223.339 396.086 223.393 396.344 223.498C396.603 223.604 396.838 223.76 397.036 223.957C397.233 224.154 397.391 224.389 397.498 224.646C397.605 224.904 397.66 225.181 397.66 225.46Z" fill="#999999" stroke="#263238" stroke-linecap="round" stroke-linejoin="round"/>
<path d="M377.88 317.86C377.88 317.86 366.43 341.51 356.37 329.51C346.31 317.51 363.31 313.01 363.31 313.01C363.31 313.01 342.83 315.43 342.83 304.33C342.83 293.23 357.41 300.17 357.41 300.17C357.41 300.17 338.47 285.4 347.69 279.17C354.11 274.83 369.55 290.5 369.55 290.5C369.55 290.5 363.65 275.18 370.55 274.83C377.45 274.48 382.01 296.7 382.01 296.7C382.01 296.7 385.82 280.33 392.76 285.04C399.7 289.75 387.31 307.93 387.31 307.93C387.31 307.93 396.23 299.12 398.66 305.37C401.09 311.62 387.31 315.78 387.31 315.78C387.31 315.78 387.21 338.69 379.58 335.91C371.95 333.13 377.88 317.86 377.88 317.86Z" fill="#FF725E"/>
<path d="M402.29 369.22C402.29 369.22 402.29 316.48 370.91 300.51" stroke="#263238" stroke-linecap="round" stroke-linejoin="round"/>
<path d="M382.13 308.93C382.13 308.93 373.37 310.49 363.48 321.25" stroke="#263238" stroke-linecap="round" stroke-linejoin="round"/>
<path d="M376 303.61C376 303.61 366.34 306.56 357 305.49" stroke="#263238" stroke-linecap="round" stroke-linejoin="round"/>
<path d="M378.72 305.72C383.232 302.698 386.794 298.457 388.99 293.49" stroke="#263238" stroke-linecap="round" stroke-linejoin="round"/>
<path d="M437.41 333.41C437.41 333.41 447.07 353.36 455.56 343.24C464.05 333.12 449.7 329.31 449.7 329.31C449.7 329.31 466.98 331.36 466.98 321.99C466.98 312.62 454.68 318.47 454.68 318.47C454.68 318.47 470.68 306.01 462.88 300.75C457.46 297.1 444.43 310.31 444.43 310.31C444.43 310.31 449.43 297.39 443.56 297.1C437.69 296.81 433.89 315.55 433.89 315.55C433.89 315.55 430.67 301.73 424.82 305.71C418.97 309.69 429.42 325.03 429.42 325.03C429.42 325.03 421.89 317.59 419.84 322.87C417.79 328.15 429.42 331.65 429.42 331.65C429.42 331.65 429.5 350.97 435.94 348.65C442.38 346.33 437.41 333.41 437.41 333.41Z" fill="#FF725E"/>
<path opacity="0.1" d="M437.41 333.41C437.41 333.41 447.07 353.36 455.56 343.24C464.05 333.12 449.7 329.31 449.7 329.31C449.7 329.31 466.98 331.36 466.98 321.99C466.98 312.62 454.68 318.47 454.68 318.47C454.68 318.47 470.68 306.01 462.88 300.75C457.46 297.1 444.43 310.31 444.43 310.31C444.43 310.31 449.43 297.39 443.56 297.1C437.69 296.81 433.89 315.55 433.89 315.55C433.89 315.55 430.67 301.73 424.82 305.71C418.97 309.69 429.42 325.03 429.42 325.03C429.42 325.03 421.89 317.59 419.84 322.87C417.79 328.15 429.42 331.65 429.42 331.65C429.42 331.65 429.5 350.97 435.94 348.65C442.38 346.33 437.41 333.41 437.41 333.41Z" fill="black"/>
<path d="M436.24 322.42C422.59 332.27 420.64 366.42 420.64 366.42" stroke="#263238" stroke-linecap="round" stroke-linejoin="round"/>
<path d="M432.21 326.38C437.718 328.502 442.678 331.838 446.72 336.14" stroke="#263238" stroke-linecap="round" stroke-linejoin="round"/>
<path d="M440.65 305.72C440.65 313.18 436.23 322.42 436.23 322.42L439.47 323.42" stroke="#263238" stroke-linecap="round" stroke-linejoin="round"/>
<path d="M442.14 324.22C442.14 324.22 450.37 326.06 456.61 324.22" stroke="#263238" stroke-linecap="round" stroke-linejoin="round"/>
<path d="M408.05 282C408.05 282 384.94 283 386.39 270.62C387.6 260.28 403.96 267.19 403.96 267.19C403.96 267.19 390.54 251.54 399.76 245.36C408.98 239.18 414.5 257.18 414.5 257.18C414.5 257.18 420.38 231.18 430.69 235.33C437.87 238.25 426.18 259.8 426.18 259.8C426.18 259.8 439.77 250.53 443.93 256.1C448.09 261.67 427.99 273.63 427.99 273.63C427.99 273.63 443.71 267.68 443.66 276.07C443.61 284.46 421.61 284.29 421.61 284.29C421.61 284.29 433.9 286.8 430.06 292.29C426.22 297.78 415.06 288.66 415.06 288.66C415.06 288.66 400.01 299.55 398.06 291.66C396.11 283.77 408.05 282 408.05 282Z" fill="#FF725E"/>
<path opacity="0.2" d="M408.05 282C408.05 282 384.94 283 386.39 270.62C387.6 260.28 403.96 267.19 403.96 267.19C403.96 267.19 390.54 251.54 399.76 245.36C408.98 239.18 414.5 257.18 414.5 257.18C414.5 257.18 420.38 231.18 430.69 235.33C437.87 238.25 426.18 259.8 426.18 259.8C426.18 259.8 439.77 250.53 443.93 256.1C448.09 261.67 427.99 273.63 427.99 273.63C427.99 273.63 443.71 267.68 443.66 276.07C443.61 284.46 421.61 284.29 421.61 284.29C421.61 284.29 433.9 286.8 430.06 292.29C426.22 297.78 415.06 288.66 415.06 288.66C415.06 288.66 400.01 299.55 398.06 291.66C396.11 283.77 408.05 282 408.05 282Z" fill="white"/>
<path d="M411.24 369.22C411.24 369.22 407.55 303.94 420.63 260.22" stroke="#263238" stroke-linecap="round" stroke-linejoin="round"/>
<path d="M395.19 272.14C395.19 272.14 404.93 271.32 416.44 277.64" stroke="#263238" stroke-linecap="round" stroke-linejoin="round"/>
<path d="M403.29 251.58C403.29 251.58 413.03 261.12 417 274.83" stroke="#263238" stroke-linecap="round" stroke-linejoin="round"/>
<path d="M417.87 270.79C417.87 270.79 424.2 263.79 432.21 261.99" stroke="#263238" stroke-linecap="round" stroke-linejoin="round"/>
<path d="M436.03 362.76H386.26L390.26 407.89C390.302 408.365 390.521 408.807 390.872 409.129C391.224 409.451 391.683 409.629 392.16 409.63L393.16 420.78C393.205 421.256 393.425 421.698 393.779 422.019C394.132 422.341 394.592 422.52 395.07 422.52H427.22C427.697 422.519 428.156 422.341 428.508 422.019C428.859 421.697 429.078 421.255 429.12 420.78L430.12 409.63C430.598 409.63 431.058 409.451 431.411 409.129C431.765 408.808 431.985 408.366 432.03 407.89L436.03 362.76Z" fill="white" stroke="#263238" stroke-linecap="round" stroke-linejoin="round"/>
<path d="M436.35 366.45H385.94C384.997 366.447 384.093 366.071 383.426 365.404C382.759 364.737 382.383 363.833 382.38 362.89C382.383 361.947 382.759 361.043 383.426 360.376C384.093 359.709 384.997 359.333 385.94 359.33H436.35C437.292 359.333 438.195 359.709 438.861 360.376C439.526 361.044 439.9 361.948 439.9 362.89C439.9 363.832 439.526 364.736 438.861 365.404C438.195 366.071 437.292 366.447 436.35 366.45Z" fill="#263238" stroke="#263238" stroke-linecap="round" stroke-linejoin="round"/>
<path d="M420.94 409.76H424.24" stroke="#263238" stroke-linecap="round" stroke-linejoin="round"/>
<path d="M398.04 409.76H417.63" stroke="#263238" stroke-linecap="round" stroke-linejoin="round"/>
<path d="M300.76 38.73H287.13V299.41H300.76C302.93 299.407 305.011 298.543 306.545 297.008C308.078 295.472 308.94 293.39 308.94 291.22V46.92C308.94 44.7496 308.078 42.6679 306.545 41.1323C305.011 39.5967 302.93 38.7326 300.76 38.73Z" fill="#999999" stroke="#263238" stroke-linecap="round" stroke-linejoin="round"/>
<path d="M297.08 38.73H178.47C174.328 38.73 170.97 42.0878 170.97 46.23V291.91C170.97 296.052 174.328 299.41 178.47 299.41H297.08C301.222 299.41 304.58 296.052 304.58 291.91V46.23C304.58 42.0878 301.222 38.73 297.08 38.73Z" fill="#263238" stroke="#263238" stroke-linecap="round" stroke-linejoin="round"/>
<path d="M260.91 50.2C260.717 51.7972 259.947 53.2687 258.744 54.3371C257.541 55.4055 255.989 55.9969 254.38 56H220.04C218.429 56.0016 216.873 55.4119 215.668 54.3429C214.462 53.2739 213.691 51.7998 213.5 50.2C213.298 48.611 212.523 47.1502 211.321 46.0916C210.119 45.0331 208.572 44.4494 206.97 44.45H182.82C181.08 44.45 179.411 45.1391 178.178 46.3666C176.945 47.5941 176.248 49.2601 176.24 51V287.11C176.243 288.854 176.937 290.526 178.17 291.76C179.404 292.993 181.076 293.687 182.82 293.69H292.73C294.475 293.69 296.149 292.997 297.383 291.763C298.617 290.529 299.31 288.855 299.31 287.11V51C299.311 50.1355 299.142 49.2793 298.812 48.4804C298.482 47.6815 297.997 46.9556 297.386 46.3443C296.774 45.733 296.049 45.2484 295.25 44.9182C294.451 44.588 293.594 44.4187 292.73 44.42H267.44C265.834 44.4203 264.283 45.0082 263.08 46.0729C261.877 47.1376 261.105 48.6055 260.91 50.2Z" fill="#FF725E"/>
<path opacity="0.4" d="M212.49 310.27H172.33L269.14 25.27H309.3L212.49 310.27Z" fill="white"/>
<path opacity="0.4" d="M240.57 310.27H229.89L326.71 25.27H337.39L240.57 310.27Z" fill="white"/>
<path d="M260.91 50.2C260.717 51.7972 259.947 53.2687 258.744 54.3371C257.541 55.4055 255.989 55.9969 254.38 56H220.04C218.429 56.0016 216.873 55.4119 215.668 54.3429C214.462 53.2739 213.691 51.7998 213.5 50.2V50.2C213.298 48.611 212.523 47.1502 211.321 46.0916C210.119 45.0331 208.572 44.4494 206.97 44.45H182.82C181.08 44.45 179.411 45.1391 178.178 46.3666C176.945 47.5941 176.248 49.2601 176.24 51V287.11C176.243 288.854 176.937 290.526 178.17 291.76C179.404 292.993 181.076 293.687 182.82 293.69H292.73C294.475 293.69 296.149 292.997 297.383 291.763C298.617 290.529 299.31 288.855 299.31 287.11V51C299.311 50.1355 299.142 49.2793 298.812 48.4804C298.482 47.6815 297.997 46.9556 297.386 46.3443C296.774 45.733 296.049 45.2484 295.25 44.9182C294.451 44.588 293.594 44.4187 292.73 44.42H267.44C265.834 44.4203 264.283 45.0082 263.08 46.0729C261.877 47.1376 261.105 48.6055 260.91 50.2V50.2Z" stroke="#263238" stroke-linecap="round" stroke-linejoin="round"/>
<path d="M225.96 47.83C225.96 48.4233 225.784 49.0033 225.454 49.4967C225.125 49.99 224.656 50.3746 224.108 50.6016C223.56 50.8287 222.957 50.8881 222.375 50.7723C221.793 50.6566 221.258 50.3709 220.839 49.9513C220.419 49.5317 220.133 48.9972 220.018 48.4153C219.902 47.8333 219.961 47.2301 220.188 46.6819C220.415 46.1338 220.8 45.6652 221.293 45.3356C221.787 45.0059 222.367 44.83 222.96 44.83C223.756 44.83 224.519 45.1461 225.081 45.7087C225.644 46.2713 225.96 47.0343 225.96 47.83Z" fill="#FF725E" stroke="#263238" stroke-linecap="round" stroke-linejoin="round"/>
<path d="M249.68 44.92H234.5C233.728 44.92 232.988 45.2266 232.442 45.7723C231.897 46.318 231.59 47.0582 231.59 47.83C231.59 48.6018 231.897 49.3419 232.442 49.8877C232.988 50.4334 233.728 50.74 234.5 50.74H249.68C250.452 50.74 251.192 50.4334 251.738 49.8877C252.283 49.3419 252.59 48.6018 252.59 47.83C252.59 47.0582 252.283 46.318 251.738 45.7723C251.192 45.2266 250.452 44.92 249.68 44.92Z" fill="#999999" stroke="#263238" stroke-linecap="round" stroke-linejoin="round"/>
<path d="M251.5 280.87H222.32C221.524 280.87 220.761 281.186 220.199 281.749C219.636 282.311 219.32 283.074 219.32 283.87C219.32 284.666 219.636 285.429 220.199 285.991C220.761 286.554 221.524 286.87 222.32 286.87H251.5C252.296 286.87 253.059 286.554 253.621 285.991C254.184 285.429 254.5 284.666 254.5 283.87C254.5 283.074 254.184 282.311 253.621 281.749C253.059 281.186 252.296 280.87 251.5 280.87Z" fill="#999999" stroke="#263238" stroke-linecap="round" stroke-linejoin="round"/>
<path d="M310.43 105.07V85.57C310.43 85.1377 310.258 84.7231 309.953 84.4174C309.647 84.1117 309.232 83.94 308.8 83.94C308.368 83.94 307.953 84.1117 307.647 84.4174C307.342 84.7231 307.17 85.1377 307.17 85.57V105.07C307.17 105.502 307.342 105.917 307.647 106.223C307.953 106.528 308.368 106.7 308.8 106.7C309.232 106.7 309.647 106.528 309.953 106.223C310.258 105.917 310.43 105.502 310.43 105.07Z" fill="#263238"/>
<path d="M310.43 119.55V113.06C310.43 112.628 310.258 112.213 309.953 111.907C309.647 111.602 309.232 111.43 308.8 111.43C308.368 111.43 307.953 111.602 307.647 111.907C307.342 112.213 307.17 112.628 307.17 113.06V119.55C307.17 119.982 307.342 120.397 307.647 120.703C307.953 121.008 308.368 121.18 308.8 121.18C309.232 121.18 309.647 121.008 309.953 120.703C310.258 120.397 310.43 119.982 310.43 119.55Z" fill="#263238"/>
<path d="M313.46 133.93H166.35V167.07H313.46V133.93Z" fill="white" stroke="#263238" stroke-linecap="round" stroke-linejoin="round"/>
<path d="M184.13 154L181.75 152.19L182.14 155.1C182.166 155.286 182.151 155.476 182.098 155.656C182.044 155.836 181.953 156.002 181.83 156.144C181.707 156.286 181.555 156.401 181.384 156.479C181.213 156.558 181.028 156.599 180.84 156.6C180.651 156.6 180.465 156.56 180.293 156.482C180.121 156.404 179.968 156.29 179.843 156.148C179.719 156.006 179.627 155.839 179.573 155.658C179.519 155.477 179.504 155.287 179.53 155.1L179.92 152.19L177.5 154C177.352 154.113 177.181 154.194 176.999 154.237C176.817 154.279 176.628 154.283 176.444 154.247C176.261 154.211 176.087 154.136 175.935 154.028C175.782 153.92 175.655 153.781 175.56 153.62V153.56C175.466 153.398 175.407 153.217 175.388 153.031C175.369 152.844 175.39 152.655 175.45 152.477C175.509 152.3 175.606 152.136 175.734 151.999C175.861 151.861 176.017 151.753 176.19 151.68L178.92 150.54L176.19 149.39C176.017 149.317 175.861 149.209 175.734 149.071C175.606 148.934 175.509 148.77 175.45 148.592C175.39 148.415 175.369 148.226 175.388 148.039C175.407 147.853 175.466 147.672 175.56 147.51V147.46C175.648 147.292 175.77 147.146 175.919 147.03C176.069 146.914 176.241 146.831 176.425 146.787C176.609 146.744 176.8 146.74 176.986 146.777C177.171 146.814 177.346 146.89 177.5 147L179.88 148.81L179.49 145.9C179.464 145.713 179.479 145.524 179.533 145.343C179.587 145.163 179.679 144.996 179.804 144.855C179.928 144.714 180.081 144.601 180.253 144.524C180.425 144.447 180.612 144.408 180.8 144.41C180.987 144.41 181.173 144.449 181.343 144.527C181.514 144.604 181.666 144.717 181.79 144.859C181.913 145 182.004 145.166 182.058 145.346C182.111 145.525 182.126 145.714 182.1 145.9L181.71 148.81L184.09 147C184.239 146.887 184.41 146.807 184.593 146.765C184.775 146.723 184.964 146.721 185.148 146.757C185.331 146.794 185.505 146.87 185.657 146.979C185.809 147.088 185.936 147.228 186.03 147.39V147.44C186.124 147.602 186.183 147.783 186.202 147.969C186.221 148.156 186.2 148.345 186.14 148.522C186.081 148.7 185.984 148.864 185.856 149.001C185.728 149.139 185.573 149.247 185.4 149.32L182.67 150.47L185.4 151.61C185.573 151.683 185.728 151.791 185.856 151.929C185.984 152.066 186.081 152.23 186.14 152.407C186.2 152.585 186.221 152.774 186.202 152.961C186.183 153.147 186.124 153.328 186.03 153.49V153.55C185.941 153.711 185.819 153.851 185.673 153.962C185.526 154.073 185.358 154.153 185.179 154.195C185.001 154.237 184.815 154.242 184.634 154.208C184.453 154.175 184.282 154.104 184.13 154Z" fill="#263238"/>
<path d="M205.34 154L202.96 152.19L203.35 155.1C203.374 155.287 203.358 155.476 203.303 155.657C203.249 155.837 203.156 156.003 203.033 156.145C202.909 156.287 202.756 156.401 202.585 156.479C202.414 156.557 202.228 156.599 202.04 156.6C201.852 156.599 201.667 156.558 201.496 156.479C201.325 156.401 201.173 156.287 201.05 156.145C200.927 156.003 200.836 155.836 200.782 155.656C200.729 155.476 200.714 155.286 200.74 155.1L201.12 152.19L198.75 154C198.602 154.114 198.431 154.194 198.249 154.237C198.067 154.279 197.878 154.283 197.694 154.247C197.511 154.211 197.337 154.136 197.185 154.028C197.032 153.92 196.905 153.781 196.81 153.62V153.56C196.716 153.398 196.657 153.217 196.638 153.031C196.619 152.844 196.64 152.655 196.7 152.477C196.759 152.3 196.856 152.136 196.984 151.999C197.111 151.861 197.267 151.753 197.44 151.68L200.16 150.54L197.44 149.39C197.267 149.317 197.111 149.209 196.984 149.071C196.856 148.934 196.759 148.77 196.7 148.592C196.64 148.415 196.619 148.226 196.638 148.039C196.657 147.853 196.716 147.672 196.81 147.51V147.46C196.904 147.298 197.031 147.158 197.183 147.049C197.335 146.94 197.509 146.864 197.692 146.828C197.875 146.791 198.065 146.793 198.247 146.835C198.429 146.877 198.601 146.957 198.75 147.07L201.12 148.88L200.74 145.97C200.714 145.784 200.729 145.595 200.782 145.416C200.836 145.236 200.927 145.07 201.05 144.929C201.174 144.788 201.326 144.674 201.496 144.597C201.667 144.52 201.853 144.48 202.04 144.48C202.228 144.48 202.413 144.52 202.585 144.597C202.756 144.674 202.908 144.787 203.032 144.928C203.156 145.069 203.249 145.235 203.304 145.415C203.358 145.595 203.374 145.784 203.35 145.97L202.96 148.88L205.34 147.07C205.488 146.957 205.659 146.877 205.84 146.835C206.022 146.794 206.211 146.791 206.393 146.828C206.576 146.865 206.749 146.94 206.9 147.049C207.051 147.158 207.177 147.298 207.27 147.46V147.51C207.364 147.672 207.423 147.853 207.442 148.039C207.461 148.226 207.44 148.415 207.38 148.592C207.321 148.77 207.224 148.934 207.096 149.071C206.968 149.209 206.813 149.317 206.64 149.39L203.91 150.54L206.64 151.68C206.813 151.753 206.968 151.861 207.096 151.999C207.224 152.136 207.321 152.3 207.38 152.477C207.44 152.655 207.461 152.844 207.442 153.031C207.423 153.217 207.364 153.398 207.27 153.56V153.62C207.176 153.781 207.05 153.92 206.898 154.028C206.746 154.136 206.573 154.21 206.391 154.246C206.208 154.282 206.02 154.279 205.839 154.236C205.658 154.194 205.488 154.113 205.34 154Z" fill="#263238"/>
<path d="M226.5 154L224.13 152.19L224.52 155.1C224.544 155.287 224.528 155.476 224.473 155.657C224.419 155.837 224.326 156.003 224.203 156.145C224.079 156.287 223.926 156.401 223.755 156.479C223.584 156.557 223.398 156.599 223.21 156.6C223.022 156.599 222.836 156.557 222.665 156.479C222.494 156.401 222.341 156.287 222.217 156.145C222.093 156.003 222.001 155.837 221.946 155.657C221.892 155.476 221.876 155.287 221.9 155.1L222.29 152.19L219.96 154C219.811 154.114 219.641 154.194 219.459 154.237C219.277 154.279 219.088 154.283 218.904 154.247C218.721 154.211 218.547 154.136 218.395 154.028C218.242 153.92 218.115 153.781 218.02 153.62V153.56C217.926 153.398 217.867 153.217 217.848 153.031C217.829 152.844 217.85 152.655 217.91 152.477C217.969 152.3 218.066 152.136 218.194 151.999C218.321 151.861 218.477 151.753 218.65 151.68L221.38 150.54L218.65 149.39C218.477 149.317 218.321 149.209 218.194 149.071C218.066 148.934 217.969 148.77 217.91 148.592C217.85 148.415 217.829 148.226 217.848 148.039C217.867 147.853 217.926 147.672 218.02 147.51V147.46C218.114 147.298 218.241 147.158 218.393 147.049C218.545 146.94 218.719 146.864 218.902 146.828C219.085 146.791 219.275 146.793 219.457 146.835C219.639 146.877 219.811 146.957 219.96 147.07L222.33 148.88L221.94 145.97C221.916 145.784 221.932 145.595 221.986 145.415C222.041 145.235 222.134 145.069 222.258 144.928C222.382 144.787 222.534 144.674 222.705 144.597C222.877 144.52 223.062 144.48 223.25 144.48C223.438 144.48 223.623 144.52 223.794 144.597C223.966 144.674 224.118 144.787 224.242 144.928C224.366 145.069 224.459 145.235 224.514 145.415C224.568 145.595 224.584 145.784 224.56 145.97L224.17 148.88L226.5 147C226.649 146.887 226.82 146.807 227.003 146.765C227.185 146.723 227.374 146.721 227.558 146.758C227.741 146.794 227.915 146.87 228.067 146.979C228.219 147.088 228.346 147.228 228.44 147.39V147.44C228.536 147.601 228.597 147.781 228.617 147.968C228.638 148.154 228.618 148.343 228.559 148.522C228.5 148.7 228.404 148.863 228.276 149.001C228.149 149.139 227.993 149.248 227.82 149.32L225.09 150.47L227.81 151.61C227.983 151.683 228.138 151.791 228.266 151.929C228.394 152.066 228.491 152.23 228.55 152.407C228.61 152.585 228.631 152.774 228.612 152.961C228.593 153.147 228.534 153.328 228.44 153.49V153.55C228.351 153.717 228.228 153.862 228.079 153.977C227.929 154.092 227.756 154.174 227.572 154.217C227.389 154.259 227.198 154.262 227.013 154.225C226.828 154.187 226.653 154.111 226.5 154Z" fill="#263238"/>
<path d="M247.75 154L245.37 152.19L245.76 155.1C245.786 155.286 245.771 155.476 245.718 155.656C245.664 155.836 245.573 156.003 245.45 156.145C245.327 156.287 245.175 156.401 245.004 156.479C244.833 156.558 244.648 156.599 244.46 156.6C244.271 156.6 244.085 156.56 243.913 156.482C243.741 156.404 243.588 156.29 243.463 156.148C243.339 156.006 243.247 155.839 243.193 155.658C243.139 155.477 243.124 155.287 243.15 155.1L243.54 152.19L241.16 154C241.012 154.114 240.841 154.194 240.659 154.237C240.477 154.279 240.288 154.283 240.104 154.247C239.921 154.211 239.747 154.136 239.595 154.028C239.442 153.92 239.315 153.781 239.22 153.62V153.56C239.126 153.398 239.067 153.217 239.048 153.031C239.029 152.844 239.05 152.655 239.11 152.477C239.169 152.3 239.266 152.136 239.394 151.999C239.521 151.861 239.677 151.753 239.85 151.68L242.58 150.54L239.85 149.39C239.677 149.317 239.521 149.209 239.394 149.071C239.266 148.934 239.169 148.77 239.11 148.592C239.05 148.415 239.029 148.226 239.048 148.039C239.067 147.853 239.126 147.672 239.22 147.51V147.46C239.314 147.298 239.441 147.158 239.593 147.049C239.745 146.94 239.919 146.864 240.102 146.828C240.285 146.791 240.475 146.793 240.657 146.835C240.839 146.877 241.011 146.957 241.16 147.07L243.54 148.88L243.15 145.97C243.124 145.783 243.139 145.594 243.193 145.413C243.247 145.233 243.339 145.066 243.464 144.925C243.588 144.784 243.741 144.671 243.913 144.594C244.085 144.517 244.272 144.478 244.46 144.48C244.647 144.48 244.833 144.52 245.003 144.597C245.174 144.674 245.326 144.788 245.449 144.929C245.573 145.07 245.664 145.236 245.718 145.416C245.771 145.595 245.786 145.784 245.76 145.97L245.37 148.88L247.75 147.07C247.899 146.957 248.07 146.877 248.253 146.835C248.435 146.793 248.624 146.791 248.808 146.828C248.991 146.864 249.165 146.94 249.317 147.049C249.469 147.158 249.596 147.298 249.69 147.46V147.51C249.784 147.672 249.843 147.853 249.862 148.039C249.881 148.226 249.86 148.415 249.8 148.592C249.741 148.77 249.644 148.934 249.516 149.071C249.388 149.209 249.233 149.317 249.06 149.39L246.34 150.54L249.06 151.68C249.233 151.753 249.388 151.861 249.516 151.999C249.644 152.136 249.741 152.3 249.8 152.477C249.86 152.655 249.881 152.844 249.862 153.031C249.843 153.217 249.784 153.398 249.69 153.56V153.62C249.595 153.781 249.468 153.92 249.315 154.028C249.163 154.136 248.989 154.211 248.806 154.247C248.622 154.283 248.433 154.279 248.251 154.237C248.069 154.194 247.898 154.114 247.75 154Z" fill="#263238"/>
<path d="M268.96 154L266.58 152.19L266.97 155.1C266.994 155.287 266.978 155.476 266.924 155.657C266.869 155.837 266.776 156.003 266.653 156.145C266.529 156.287 266.376 156.401 266.205 156.479C266.034 156.557 265.848 156.599 265.66 156.6C265.472 156.599 265.287 156.558 265.116 156.479C264.945 156.401 264.793 156.287 264.67 156.145C264.547 156.003 264.456 155.836 264.402 155.656C264.349 155.476 264.334 155.286 264.36 155.1L264.74 152.19L262.37 154C262.222 154.114 262.051 154.194 261.869 154.237C261.687 154.279 261.498 154.283 261.314 154.247C261.131 154.211 260.957 154.136 260.805 154.028C260.652 153.92 260.525 153.781 260.43 153.62V153.56C260.336 153.398 260.277 153.217 260.258 153.031C260.239 152.844 260.26 152.655 260.32 152.477C260.379 152.3 260.476 152.136 260.604 151.999C260.732 151.861 260.887 151.753 261.06 151.68L263.78 150.54L261.06 149.39C260.887 149.317 260.732 149.209 260.604 149.071C260.476 148.934 260.379 148.77 260.32 148.592C260.26 148.415 260.239 148.226 260.258 148.039C260.277 147.853 260.336 147.672 260.43 147.51V147.46C260.524 147.298 260.651 147.158 260.803 147.049C260.955 146.94 261.129 146.864 261.312 146.828C261.495 146.791 261.685 146.793 261.867 146.835C262.049 146.877 262.221 146.957 262.37 147.07L264.74 148.88L264.36 145.97C264.334 145.784 264.349 145.595 264.402 145.416C264.456 145.236 264.547 145.07 264.67 144.929C264.794 144.788 264.946 144.674 265.117 144.597C265.287 144.52 265.473 144.48 265.66 144.48C265.848 144.48 266.033 144.52 266.205 144.597C266.376 144.674 266.528 144.787 266.652 144.928C266.776 145.069 266.869 145.235 266.924 145.415C266.978 145.595 266.994 145.784 266.97 145.97L266.58 148.88L268.96 147.07C269.108 146.957 269.279 146.877 269.461 146.835C269.642 146.794 269.831 146.791 270.013 146.828C270.196 146.865 270.369 146.94 270.52 147.049C270.671 147.158 270.797 147.298 270.89 147.46V147.51C270.984 147.672 271.043 147.853 271.062 148.039C271.081 148.226 271.06 148.415 271 148.592C270.941 148.77 270.844 148.934 270.716 149.071C270.588 149.209 270.433 149.317 270.26 149.39L267.53 150.54L270.26 151.68C270.433 151.753 270.588 151.861 270.716 151.999C270.844 152.136 270.941 152.3 271 152.477C271.06 152.655 271.081 152.844 271.062 153.031C271.043 153.217 270.984 153.398 270.89 153.56V153.62C270.796 153.781 270.67 153.92 270.518 154.028C270.366 154.136 270.193 154.21 270.011 154.246C269.828 154.282 269.64 154.279 269.459 154.236C269.278 154.194 269.108 154.113 268.96 154Z" fill="#263238"/>
<path d="M304.41 150.5C304.41 150.5 300.09 155.89 294.76 155.89C289.43 155.89 285.12 150.5 285.12 150.5C285.12 150.5 289.43 145.1 294.76 145.1C300.09 145.1 304.41 150.5 304.41 150.5Z" fill="white" stroke="#263238" stroke-linecap="round" stroke-linejoin="round"/>
<path d="M298.08 150.5C298.08 151.157 297.885 151.799 297.52 152.344C297.156 152.89 296.637 153.316 296.03 153.567C295.424 153.819 294.756 153.884 294.112 153.756C293.468 153.628 292.877 153.312 292.412 152.848C291.948 152.383 291.632 151.792 291.504 151.148C291.376 150.504 291.441 149.836 291.693 149.229C291.944 148.623 292.369 148.104 292.915 147.74C293.461 147.375 294.103 147.18 294.76 147.18C295.64 147.18 296.485 147.53 297.108 148.152C297.73 148.775 298.08 149.619 298.08 150.5Z" fill="#999999" stroke="#263238" stroke-linecap="round" stroke-linejoin="round"/>
<path d="M194.98 183.62H186.21C184.017 183.62 182.24 185.397 182.24 187.59V198.89C182.24 201.083 184.017 202.86 186.21 202.86H194.98C197.173 202.86 198.95 201.083 198.95 198.89V187.59C198.95 185.397 197.173 183.62 194.98 183.62Z" fill="#FF725E" stroke="#263238" stroke-linecap="round" stroke-linejoin="round"/>
<path d="M213.62 183.62H204.85C202.657 183.62 200.88 185.397 200.88 187.59V198.89C200.88 201.083 202.657 202.86 204.85 202.86H213.62C215.813 202.86 217.59 201.083 217.59 198.89V187.59C217.59 185.397 215.813 183.62 213.62 183.62Z" fill="#FF725E" stroke="#263238" stroke-linecap="round" stroke-linejoin="round"/>
<path d="M232.25 183.62H223.48C221.287 183.62 219.51 185.397 219.51 187.59V198.89C219.51 201.083 221.287 202.86 223.48 202.86H232.25C234.443 202.86 236.22 201.083 236.22 198.89V187.59C236.22 185.397 234.443 183.62 232.25 183.62Z" fill="#FF725E" stroke="#263238" stroke-linecap="round" stroke-linejoin="round"/>
<path d="M250.88 183.62H242.11C239.917 183.62 238.14 185.397 238.14 187.59V198.89C238.14 201.083 239.917 202.86 242.11 202.86H250.88C253.073 202.86 254.85 201.083 254.85 198.89V187.59C254.85 185.397 253.073 183.62 250.88 183.62Z" fill="#FF725E" stroke="#263238" stroke-linecap="round" stroke-linejoin="round"/>
<path d="M269.52 183.62H260.75C258.557 183.62 256.78 185.397 256.78 187.59V198.89C256.78 201.083 258.557 202.86 260.75 202.86H269.52C271.713 202.86 273.49 201.083 273.49 198.89V187.59C273.49 185.397 271.713 183.62 269.52 183.62Z" fill="#FF725E" stroke="#263238" stroke-linecap="round" stroke-linejoin="round"/>
<path d="M288.15 183.62H279.38C277.187 183.62 275.41 185.397 275.41 187.59V198.89C275.41 201.083 277.187 202.86 279.38 202.86H288.15C290.343 202.86 292.12 201.083 292.12 198.89V187.59C292.12 185.397 290.343 183.62 288.15 183.62Z" fill="#FF725E" stroke="#263238" stroke-linecap="round" stroke-linejoin="round"/>
<path d="M204.3 205.92H195.53C193.337 205.92 191.56 207.697 191.56 209.89V221.19C191.56 223.383 193.337 225.16 195.53 225.16H204.3C206.493 225.16 208.27 223.383 208.27 221.19V209.89C208.27 207.697 206.493 205.92 204.3 205.92Z" fill="#FF725E" stroke="#263238" stroke-linecap="round" stroke-linejoin="round"/>
<path d="M222.93 205.92H214.16C211.967 205.92 210.19 207.697 210.19 209.89V221.19C210.19 223.383 211.967 225.16 214.16 225.16H222.93C225.123 225.16 226.9 223.383 226.9 221.19V209.89C226.9 207.697 225.123 205.92 222.93 205.92Z" fill="#FF725E" stroke="#263238" stroke-linecap="round" stroke-linejoin="round"/>
<path d="M241.57 205.92H232.8C230.607 205.92 228.83 207.697 228.83 209.89V221.19C228.83 223.383 230.607 225.16 232.8 225.16H241.57C243.763 225.16 245.54 223.383 245.54 221.19V209.89C245.54 207.697 243.763 205.92 241.57 205.92Z" fill="#FF725E" stroke="#263238" stroke-linecap="round" stroke-linejoin="round"/>
<path d="M260.2 205.92H251.43C249.237 205.92 247.46 207.697 247.46 209.89V221.19C247.46 223.383 249.237 225.16 251.43 225.16H260.2C262.393 225.16 264.17 223.383 264.17 221.19V209.89C264.17 207.697 262.393 205.92 260.2 205.92Z" fill="#FF725E" stroke="#263238" stroke-linecap="round" stroke-linejoin="round"/>
<path d="M278.83 205.92H270.06C267.867 205.92 266.09 207.697 266.09 209.89V221.19C266.09 223.383 267.867 225.16 270.06 225.16H278.83C281.023 225.16 282.8 223.383 282.8 221.19V209.89C282.8 207.697 281.023 205.92 278.83 205.92Z" fill="#FF725E" stroke="#263238" stroke-linecap="round" stroke-linejoin="round"/>
<path d="M194.98 228.22H186.21C184.017 228.22 182.24 229.997 182.24 232.19V243.49C182.24 245.683 184.017 247.46 186.21 247.46H194.98C197.173 247.46 198.95 245.683 198.95 243.49V232.19C198.95 229.997 197.173 228.22 194.98 228.22Z" fill="#FF725E" stroke="#263238" stroke-linecap="round" stroke-linejoin="round"/>
<path d="M213.62 228.22H204.85C202.657 228.22 200.88 229.997 200.88 232.19V243.49C200.88 245.683 202.657 247.46 204.85 247.46H213.62C215.813 247.46 217.59 245.683 217.59 243.49V232.19C217.59 229.997 215.813 228.22 213.62 228.22Z" fill="#FF725E" stroke="#263238" stroke-linecap="round" stroke-linejoin="round"/>
<path d="M232.25 228.22H223.48C221.287 228.22 219.51 229.997 219.51 232.19V243.49C219.51 245.683 221.287 247.46 223.48 247.46H232.25C234.443 247.46 236.22 245.683 236.22 243.49V232.19C236.22 229.997 234.443 228.22 232.25 228.22Z" fill="#FF725E" stroke="#263238" stroke-linecap="round" stroke-linejoin="round"/>
<path d="M250.88 228.22H242.11C239.917 228.22 238.14 229.997 238.14 232.19V243.49C238.14 245.683 239.917 247.46 242.11 247.46H250.88C253.073 247.46 254.85 245.683 254.85 243.49V232.19C254.85 229.997 253.073 228.22 250.88 228.22Z" fill="#FF725E" stroke="#263238" stroke-linecap="round" stroke-linejoin="round"/>
<path d="M269.52 228.22H260.75C258.557 228.22 256.78 229.997 256.78 232.19V243.49C256.78 245.683 258.557 247.46 260.75 247.46H269.52C271.713 247.46 273.49 245.683 273.49 243.49V232.19C273.49 229.997 271.713 228.22 269.52 228.22Z" fill="#FF725E" stroke="#263238" stroke-linecap="round" stroke-linejoin="round"/>
<path d="M288.15 228.22H279.38C277.187 228.22 275.41 229.997 275.41 232.19V243.49C275.41 245.683 277.187 247.46 279.38 247.46H288.15C290.343 247.46 292.12 245.683 292.12 243.49V232.19C292.12 229.997 290.343 228.22 288.15 228.22Z" fill="#FF725E" stroke="#263238" stroke-linecap="round" stroke-linejoin="round"/>
<path d="M204.3 250.52H195.53C193.337 250.52 191.56 252.297 191.56 254.49V265.79C191.56 267.983 193.337 269.76 195.53 269.76H204.3C206.493 269.76 208.27 267.983 208.27 265.79V254.49C208.27 252.297 206.493 250.52 204.3 250.52Z" fill="#FF725E" stroke="#263238" stroke-linecap="round" stroke-linejoin="round"/>
<path d="M222.93 250.52H214.16C211.967 250.52 210.19 252.297 210.19 254.49V265.79C210.19 267.983 211.967 269.76 214.16 269.76H222.93C225.123 269.76 226.9 267.983 226.9 265.79V254.49C226.9 252.297 225.123 250.52 222.93 250.52Z" fill="#FF725E" stroke="#263238" stroke-linecap="round" stroke-linejoin="round"/>
<path d="M241.57 250.52H232.8C230.607 250.52 228.83 252.297 228.83 254.49V265.79C228.83 267.983 230.607 269.76 232.8 269.76H241.57C243.763 269.76 245.54 267.983 245.54 265.79V254.49C245.54 252.297 243.763 250.52 241.57 250.52Z" fill="#FF725E" stroke="#263238" stroke-linecap="round" stroke-linejoin="round"/>
<path d="M260.2 250.52H251.43C249.237 250.52 247.46 252.297 247.46 254.49V265.79C247.46 267.983 249.237 269.76 251.43 269.76H260.2C262.393 269.76 264.17 267.983 264.17 265.79V254.49C264.17 252.297 262.393 250.52 260.2 250.52Z" fill="#FF725E" stroke="#263238" stroke-linecap="round" stroke-linejoin="round"/>
<path d="M278.83 250.52H270.06C267.867 250.52 266.09 252.297 266.09 254.49V265.79C266.09 267.983 267.867 269.76 270.06 269.76H278.83C281.023 269.76 282.8 267.983 282.8 265.79V254.49C282.8 252.297 281.023 250.52 278.83 250.52Z" fill="#FF725E" stroke="#263238" stroke-linecap="round" stroke-linejoin="round"/>
<path d="M261.537 107.298C268.753 93.7086 263.587 76.8421 249.998 69.6256C236.408 62.4091 219.542 67.5754 212.325 81.1648C205.109 94.7541 210.275 111.621 223.865 118.837C237.454 126.054 254.32 120.887 261.537 107.298Z" fill="white" stroke="#263238" stroke-linecap="round" stroke-linejoin="round"/>
<path d="M236.93 122.08C243.019 122.093 248.942 120.096 253.78 116.4C247.25 113.976 240.345 112.717 233.38 112.68C228.391 112.718 223.445 113.615 218.76 115.33C223.809 119.689 230.259 122.085 236.93 122.08Z" fill="#FF725E" stroke="#263238" stroke-linecap="round" stroke-linejoin="round"/>
<path d="M229.43 106.65C229.43 106.65 229.19 97.57 226.64 90.93C224.09 84.29 222.64 74.48 232.37 73.12C242.1 71.76 245.95 73.37 251.52 72.93C262.22 72.1 250.43 84.39 250.43 84.39L236.1 90C236.1 90 231.13 107.09 229.43 106.65Z" fill="#263238" stroke="#263238" stroke-linecap="round" stroke-linejoin="round"/>
<path d="M228.78 109.29L231.31 99L238.31 101.12L240.42 109.5C240.617 110.302 240.988 111.051 241.506 111.693C242.025 112.336 242.678 112.857 243.42 113.22C244.476 113.71 245.48 114.303 246.42 114.99C246.42 114.99 238.08 125.68 222.07 114.99C223.129 114.219 224.278 113.577 225.49 113.08C226.299 112.753 227.019 112.239 227.591 111.581C228.162 110.922 228.57 110.137 228.78 109.29Z" fill="white"/>
<path d="M250.65 84.71L251.57 90.84C251.662 91.4872 251.607 92.1468 251.41 92.77L250.88 94.44L251.19 98.44C251.205 98.6464 251.205 98.8536 251.19 99.06C251.05 101.06 250.06 110.88 244.19 111.33C238.96 111.73 233.74 106.33 231.89 103.77C231.428 103.132 231.088 102.413 230.89 101.65L230.1 98.54C229.355 98.5349 228.63 98.2942 228.031 97.8523C227.431 97.4105 226.986 96.7901 226.76 96.08C225.97 93.57 224.66 91.95 227.2 90.7C229.74 89.45 230.62 93 230.62 93C230.62 93 231.28 88.87 231.98 87.69C232.68 86.51 234.84 85.39 235.5 84.38C235.873 83.5783 236.174 82.745 236.4 81.89C236.4 81.89 244.13 83.38 250 82.19L250.65 84.71Z" fill="#263238" stroke="#263238" stroke-linecap="round" stroke-linejoin="round"/>
<path d="M228.78 109.29L231.31 99L238.31 101.12L240.42 109.5C240.617 110.302 240.988 111.051 241.506 111.693C242.025 112.336 242.678 112.857 243.42 113.22C244.476 113.71 245.48 114.303 246.42 114.99C246.42 114.99 238.08 125.68 222.07 114.99C223.129 114.219 224.278 113.577 225.49 113.08C226.299 112.753 227.019 112.239 227.591 111.581C228.162 110.922 228.57 110.137 228.78 109.29V109.29Z" stroke="#263238" stroke-linecap="round" stroke-linejoin="round"/>
<path d="M250.65 83.62L251.57 89.75C251.662 90.3972 251.607 91.0567 251.41 91.68L250.88 93.35L251.19 97.35C251.205 97.5597 251.205 97.7702 251.19 97.98C251.05 99.98 250.06 109.8 244.19 110.25C238.96 110.65 233.74 105.25 231.89 102.69C231.43 102.051 231.091 101.332 230.89 100.57L230.1 97.46C229.351 97.4591 228.623 97.2204 228.019 96.7782C227.415 96.336 226.967 95.7133 226.74 95C225.95 92.49 224.64 90.87 227.18 89.62C229.72 88.37 230.62 91.9 230.62 91.9C230.62 91.9 231.28 87.77 231.98 86.59C232.68 85.41 234.84 84.29 235.5 83.28C235.873 82.4782 236.174 81.645 236.4 80.79C236.4 80.79 244.13 82.28 250 81.09L250.65 83.62Z" fill="white" stroke="#263238" stroke-linecap="round" stroke-linejoin="round"/>
<path d="M246.5 93.85L248.42 98.49C248.49 98.641 248.521 98.8071 248.511 98.9732C248.5 99.1393 248.448 99.3002 248.36 99.4412C248.271 99.5822 248.149 99.699 248.004 99.7808C247.859 99.8627 247.696 99.9071 247.53 99.91L245.14 100.07" stroke="#263238" stroke-width="0.75" stroke-linecap="round" stroke-linejoin="round"/>
<path d="M240.55 101.8C240.742 102.195 241.018 102.543 241.36 102.82C241.701 103.096 242.099 103.295 242.525 103.401C242.952 103.506 243.396 103.517 243.827 103.433C244.258 103.348 244.665 103.169 245.02 102.91" stroke="#263238" stroke-width="0.75" stroke-linecap="round" stroke-linejoin="round"/>
<path d="M240.5 76.3C230.14 75.12 228.23 79.21 228.23 79.21" stroke="#7F7F7F" stroke-width="0.75" stroke-linecap="round" stroke-linejoin="round"/>
<path d="M251.87 75.17C248.896 75.9135 245.845 76.3062 242.78 76.34" stroke="#7F7F7F" stroke-width="0.75" stroke-linecap="round" stroke-linejoin="round"/>
<path d="M242.5 79.28C245.45 79.28 251.41 78.73 253.79 76.01" stroke="#7F7F7F" stroke-width="0.75" stroke-linecap="round" stroke-linejoin="round"/>
<path d="M238.14 78.78C238.905 78.9549 239.679 79.0818 240.46 79.16" stroke="#7F7F7F" stroke-width="0.75" stroke-linecap="round" stroke-linejoin="round"/>
<path d="M242.34 93.18C242.34 93.98 242.02 94.62 241.62 94.62C241.22 94.62 240.9 93.98 240.9 93.18C240.9 92.38 241.23 91.74 241.62 91.74C242.01 91.74 242.34 92.39 242.34 93.18Z" fill="#263238"/>
<path d="M249.12 93C249.12 93.69 248.84 94.25 248.5 94.25C248.16 94.25 247.87 93.69 247.87 93C247.87 92.31 248.15 91.75 248.5 91.75C248.85 91.75 249.12 92.3 249.12 93Z" fill="#263238"/>
<path d="M239.27 91.06C239.27 91.06 240.13 88.49 241.62 88.56C242.08 88.6036 242.521 88.7643 242.901 89.0269C243.281 89.2896 243.587 89.6452 243.79 90.06" stroke="#263238" stroke-width="0.75" stroke-linecap="round" stroke-linejoin="round"/>
<path d="M249.59 90C249.31 89.31 248.88 88.53 248.31 88.57C247.31 88.63 246.82 90.07 246.82 90.07" stroke="#263238" stroke-width="0.75" stroke-linecap="round" stroke-linejoin="round"/>
<path d="M94.59 211.42C96.59 206.56 91.7 191.86 89.51 185.83C89.3827 185.481 89.1718 185.169 88.8958 184.921C88.6197 184.672 88.287 184.495 87.9267 184.406C87.5664 184.316 87.1896 184.316 86.8293 184.405C86.469 184.495 86.1361 184.672 85.86 184.92C83.86 186.69 81.47 190.13 81.07 196.51C81.07 196.51 65.81 223.38 65.81 235.64C65.81 247.13 88.53 271.06 88.53 271.06C91.0917 270.264 93.257 268.528 94.59 266.2C94.59 266.2 86.1 245.2 79.51 236.2C79.5 236.21 92.34 216.8 94.59 211.42Z" fill="#263238"/>
<path opacity="0.2" d="M92.04 219.28C92.04 219.28 84.77 203.79 82.04 205.18C79.31 206.57 72.23 232.69 74.94 236.85C77.65 241.01 92.43 270.38 96.13 269.79C99.83 269.2 92.04 219.28 92.04 219.28Z" fill="black"/>
<path d="M94.59 211.42C96.59 206.56 91.7 191.86 89.51 185.83C89.3827 185.481 89.1718 185.169 88.8958 184.921C88.6197 184.672 88.287 184.495 87.9267 184.406C87.5664 184.316 87.1896 184.316 86.8293 184.405C86.469 184.495 86.1361 184.672 85.86 184.92C83.86 186.69 81.47 190.13 81.07 196.51C81.07 196.51 65.81 223.38 65.81 235.64C65.81 247.13 88.53 271.06 88.53 271.06C91.0917 270.264 93.257 268.528 94.59 266.2C94.59 266.2 86.1 245.2 79.51 236.2C79.5 236.21 92.34 216.8 94.59 211.42Z" stroke="#263238" stroke-linecap="round" stroke-linejoin="round"/>
<path d="M92.66 264.3L96.09 269.79C96.09 269.79 106.77 273.13 107.88 276.66C108.99 280.19 103.52 285.11 100.27 284.12C97.02 283.13 91.72 273.33 91.72 273.33L87.4 268.33L92.66 264.3Z" fill="white" stroke="#263238" stroke-linecap="round" stroke-linejoin="round"/>
<path d="M85.93 269.67L88.24 272.33C91.4885 271.421 94.2655 269.303 96 266.41L94.6 263.08C94.6 263.08 92.63 267.7 85.93 269.67Z" fill="#FF725E" stroke="#263238" stroke-linecap="round" stroke-linejoin="round"/>
<path d="M99.62 416.85L96.62 429.3C96.5203 429.717 96.5164 430.151 96.6086 430.57C96.7008 430.989 96.8866 431.382 97.1522 431.719C97.4178 432.055 97.7562 432.328 98.142 432.515C98.5278 432.702 98.9511 432.8 99.38 432.8H116.9C117.315 432.8 117.725 432.71 118.101 432.535C118.478 432.36 118.811 432.105 119.079 431.788C119.346 431.471 119.542 431.099 119.651 430.699C119.76 430.298 119.78 429.879 119.71 429.47C119.574 428.534 119.245 427.637 118.742 426.836C118.239 426.035 117.574 425.349 116.79 424.82C112.79 422.22 110.89 414.08 110.89 414.08L99.62 416.85Z" fill="#263238" stroke="#263238" stroke-linecap="round" stroke-linejoin="round"/>
<path d="M142.79 418.93C142.79 418.93 139.96 423 139.5 430.26C139.485 430.588 139.537 430.916 139.652 431.224C139.768 431.531 139.944 431.812 140.172 432.05C140.399 432.287 140.672 432.476 140.974 432.605C141.276 432.734 141.601 432.8 141.93 432.8H173C173.606 432.803 174.199 432.618 174.695 432.269C175.191 431.92 175.566 431.426 175.769 430.854C175.971 430.282 175.99 429.662 175.824 429.079C175.657 428.496 175.313 427.979 174.84 427.6C173.518 426.616 171.951 426.014 170.31 425.86C162.69 424.86 155.94 421.36 154.72 416.86L142.79 418.93Z" fill="#263238" stroke="#263238" stroke-linecap="round" stroke-linejoin="round"/>
<path d="M94.59 266.2C94.59 266.2 91.07 280.76 92.46 312.2L93.36 347.8C93.36 347.8 88.3 372.8 98.01 418.06C98.01 418.06 101.01 424.76 113.1 416.38L114.5 347.33L127.15 271.06L94.59 266.2Z" fill="#999999"/>
<path opacity="0.2" d="M119.75 298.33C119.75 298.33 114.59 318.9 112.51 330.92C110.43 342.94 98.06 342.02 96.57 349.92C95.08 357.82 109.57 348.53 108.16 376.92C106.75 405.31 101.68 420.83 109.64 420.6C117.6 420.37 117.83 398 117.83 398L122.68 329.82V320.34L123.84 302.34L119.75 298.33Z" fill="black"/>
<path d="M94.59 266.2C94.59 266.2 91.07 280.76 92.46 312.2L93.36 347.8C93.36 347.8 88.3 372.8 98.01 418.06C98.01 418.06 101.01 424.76 113.1 416.38L114.5 347.33L127.15 271.06L94.59 266.2Z" stroke="#263238" stroke-linecap="round" stroke-linejoin="round"/>
<path d="M96.57 355.52C96.0321 356.231 95.5347 356.973 95.08 357.74" stroke="#263238" stroke-linecap="round" stroke-linejoin="round"/>
<path d="M97.2 347.68C97.2 347.68 108.8 344.91 109.59 347.68C110.27 350.09 104 347.26 97.81 354.02" stroke="#263238" stroke-linecap="round" stroke-linejoin="round"/>
<path d="M117.31 303.33C126.31 317.86 138.98 346.45 138.98 346.45C138.98 346.45 137.07 349.76 138.98 355.31C138.98 355.31 133.98 374.62 141.23 420.79C141.23 420.79 147.47 424.79 156.49 417.79C156.49 417.79 160.99 348.39 159.26 339.03C157.53 329.67 141.26 267.85 141.26 267.85H105.5" fill="#999999"/>
<path opacity="0.2" d="M115.28 304.34C115.28 304.34 120.73 307.11 131.18 304.34C141.63 301.57 132.97 313.34 136.43 326.18C139.89 339.02 149.61 344.91 148.05 350.45C146.49 355.99 141.87 357.39 140.88 372.3C139.89 387.21 152.97 414.75 147.82 420.39C142.67 426.03 130.19 412.69 130.19 412.69L119.75 342L115.28 304.34Z" fill="black"/>
<path d="M117.31 303.33C126.31 317.86 138.98 346.45 138.98 346.45C138.98 346.45 137.07 349.76 138.98 355.31C138.98 355.31 133.98 374.62 141.23 420.79C141.23 420.79 147.47 424.79 156.49 417.79C156.49 417.79 160.99 348.39 159.26 339.03C157.53 329.67 141.26 267.85 141.26 267.85H105.5" stroke="#263238" stroke-linecap="round" stroke-linejoin="round"/>
<path d="M145.6 348.9C149.71 348.28 154.96 347.9 154.75 349.76C154.41 352.88 147.08 349.71 142.62 354.96" stroke="#263238" stroke-linecap="round" stroke-linejoin="round"/>
<path d="M140.88 349.76C140.88 349.76 141.6 349.6 142.71 349.39" stroke="#263238" stroke-linecap="round" stroke-linejoin="round"/>
<path d="M169.5 169.72L170.15 163.12C170.15 163.12 168.85 156.25 169.5 153.92C170.15 151.59 175.85 136.82 177.66 137.47C179.47 138.12 174.94 146.15 175.07 148.47C175.07 148.47 177.48 148.6 178.07 150.15C178.07 150.15 180.36 150.54 180.49 152.61C181.049 152.967 181.501 153.469 181.797 154.062C182.093 154.656 182.222 155.319 182.17 155.98C181.92 158.18 177.51 164.14 177.51 164.14L177.77 172.69L169.5 169.72Z" fill="white" stroke="#263238" stroke-linecap="round" stroke-linejoin="round"/>
<path d="M131.16 158.57C131.16 158.57 128.61 153.57 128.24 151.69C127.97 150.38 128.51 147.69 128.24 146.37C127.62 143.32 123.35 134.93 123.35 134.93C123.179 134.569 122.917 134.259 122.59 134.03L120.09 137.11H113.31L102.95 150.79L108.05 163.07L106.56 164.84C107.47 165.74 108.05 166.26 108.05 166.26L106.56 175.17L121.16 176.65L121.5 171H125.94C126.539 171 127.114 170.762 127.538 170.338C127.962 169.914 128.2 169.339 128.2 168.74V161L130.2 160.42C130.393 160.375 130.574 160.289 130.731 160.168C130.887 160.046 131.015 159.892 131.107 159.716C131.198 159.541 131.25 159.347 131.259 159.149C131.268 158.951 131.235 158.754 131.16 158.57Z" fill="white" stroke="#263238" stroke-linecap="round" stroke-linejoin="round"/>
<path d="M95.85 154.12C101.73 162.78 108.05 166.26 108.05 166.26L110.54 160.07C110.54 160.07 105.54 159.54 106.29 154.68C107.46 147.51 113.29 153.96 113.29 153.96L114.55 148.42C114.55 148.42 117.66 145.08 117.44 143.91C117.273 143.06 117.053 142.222 116.78 141.4C116.78 141.4 128.03 130.69 126.84 124.72C126.84 124.72 117.47 126.62 106.29 128.72C92.68 131.18 89.21 144.36 95.85 154.12Z" fill="#263238" stroke="#263238" stroke-linecap="round" stroke-linejoin="round"/>
<path d="M125.98 171C125.98 171 118.15 169.67 115.16 166C112.17 162.33 114.55 166.26 115.95 168.51C118.95 173.32 121.5 171 125.98 171Z" fill="#263238"/>
<path d="M121.16 159.74C121.7 160.351 122.382 160.822 123.145 161.109C123.909 161.397 124.731 161.493 125.54 161.39" stroke="#263238" stroke-width="0.75" stroke-linecap="round" stroke-linejoin="round"/>
<path d="M126.86 150.17C126.86 150.87 126.6 151.43 126.27 151.43C125.94 151.43 125.69 150.87 125.69 150.17C125.69 149.47 125.95 148.91 126.27 148.91C126.59 148.91 126.86 149.48 126.86 150.17Z" fill="#263238"/>
<path d="M126.75 146.49C125.94 146.312 125.094 146.428 124.361 146.816C123.629 147.204 123.058 147.84 122.75 148.61" stroke="#263238" stroke-width="0.75" stroke-linecap="round" stroke-linejoin="round"/>
<path d="M98.93 179.06C98.93 179.06 98.93 172.22 110.72 173.28C125.05 174.58 130.83 181.92 130.83 181.92L98.93 179.06Z" fill="#FF725E" stroke="#263238" stroke-linecap="round" stroke-linejoin="round"/>
<path d="M122.05 177.83C130.98 178.83 146.55 180.98 145.62 204.99C144.69 229 141.23 267.83 141.23 267.83C141.23 267.83 96.57 286.91 91.5 269.21C91.5 269.21 93.82 249.21 86.42 218.08C79.02 186.95 82.37 173.5 122.05 177.83Z" fill="#263238"/>
<path opacity="0.2" d="M147.88 245.17C147.88 245.17 142.05 246.57 124.19 236.85C96.19 221.58 93.05 199.17 85.19 202.85C77.33 206.53 92.96 278.8 92.96 278.8L121.96 280.62H148.84L147.88 245.17Z" fill="black"/>
<path d="M122.05 177.83C130.98 178.83 146.55 180.98 145.62 204.99C144.69 229 141.23 267.83 141.23 267.83C141.23 267.83 96.57 286.91 91.5 269.21C91.5 269.21 93.82 249.21 86.42 218.08C79.02 186.95 82.37 173.5 122.05 177.83Z" stroke="#263238" stroke-linecap="round" stroke-linejoin="round"/>
<path d="M70.5 235.2C70 235.32 69.47 235.47 68.91 235.65" stroke="#7F7F7F" stroke-width="0.75" stroke-linecap="round" stroke-linejoin="round"/>
<path d="M77.88 235.65C77.88 235.65 76 234.31 71.88 234.93" stroke="#7F7F7F" stroke-width="0.75" stroke-linecap="round" stroke-linejoin="round"/>
<path d="M125.5 178.27C125.5 178.27 140.97 178.37 147.9 182.53C147.9 182.53 160.15 180.45 165.01 182.53L169.4 166.12C169.4 166.12 175.18 163.34 177.95 167.5C177.95 167.5 180.03 192.5 176.57 194.55C173.11 196.6 145.63 202.87 145.63 202.87C145.63 202.87 128.08 197.59 125.5 178.27Z" fill="#263238"/>
<path opacity="0.2" d="M145.5 198.63C145.5 198.63 144.69 192.2 156.5 193.03C168.31 193.86 177.5 194.09 178.67 188.54C179.84 182.99 192.79 173.39 188.67 191.36L184.5 209.36L159.66 211L145.5 198.63Z" fill="black"/>
<path d="M125.5 178.27C125.5 178.27 140.97 178.37 147.9 182.53C147.9 182.53 160.15 180.45 165.01 182.53L169.4 166.12C169.4 166.12 175.18 163.34 177.95 167.5C177.95 167.5 180.03 192.5 176.57 194.55C173.11 196.6 145.63 202.87 145.63 202.87C145.63 202.87 128.08 197.59 125.5 178.27Z" stroke="#263238" stroke-linecap="round" stroke-linejoin="round"/>
<path d="M167.88 183.76C169.216 184.849 170.364 186.15 171.28 187.61" stroke="#7F7F7F" stroke-width="0.75" stroke-linecap="round" stroke-linejoin="round"/>
<path d="M165.38 182.69C165.757 182.689 166.129 182.771 166.47 182.93" stroke="#7F7F7F" stroke-width="0.75" stroke-linecap="round" stroke-linejoin="round"/>
<path d="M86.09 211C85.55 205.82 84.09 196.31 84.66 189.73" stroke="#7F7F7F" stroke-width="0.75" stroke-linecap="round" stroke-linejoin="round"/>
<path d="M82 198.63C82 198.63 84.7 214.63 86 214.63" stroke="#7F7F7F" stroke-width="0.75" stroke-linecap="round" stroke-linejoin="round"/>
<path d="M91.71 258.05V267.03" stroke="#7F7F7F" stroke-width="0.75" stroke-linecap="round" stroke-linejoin="round"/>
<path d="M106.95 280.64C106.95 280.64 108.4 290.79 112.86 297.06L106.95 280.64Z" fill="#999999"/>
<path d="M106.95 280.64C106.95 280.64 108.4 290.79 112.86 297.06" stroke="#263238" stroke-linecap="round" stroke-linejoin="round"/>
<path d="M168.14 164.23L167.14 167.95C167.14 167.95 173.9 166.35 179.88 169.56L179.27 165.21C179.27 165.21 175.4 162.32 168.14 164.23Z" fill="#FF725E" stroke="#263238" stroke-linecap="round" stroke-linejoin="round"/>
<path d="M131.21 260.13C126.34 262.29 116.68 264.19 97.71 262.32" stroke="#7F7F7F" stroke-width="0.75" stroke-linecap="round" stroke-linejoin="round"/>
<path d="M136.09 256.15C135.675 257.069 135.01 257.852 134.17 258.41" stroke="#7F7F7F" stroke-width="0.75" stroke-linecap="round" stroke-linejoin="round"/>
<path d="M149.5 183L157.39 187.88" stroke="#7F7F7F" stroke-width="0.75" stroke-linecap="round" stroke-linejoin="round"/>
<path d="M137.18 224.07C142.223 218.134 145.36 210.816 146.18 203.07" stroke="#7F7F7F" stroke-width="0.75" stroke-linecap="round" stroke-linejoin="round"/>
<path d="M132.58 222.62C126.169 230.025 118.161 235.878 109.16 239.74" stroke="#7F7F7F" stroke-width="0.75" stroke-linecap="round" stroke-linejoin="round"/>
<path d="M136.5 217.54C135.75 218.62 134.96 219.67 134.13 220.7" stroke="#7F7F7F" stroke-width="0.75" stroke-linecap="round" stroke-linejoin="round"/>
<path d="M138.91 213.92C138.53 214.56 138.13 215.18 137.73 215.8" stroke="#7F7F7F" stroke-width="0.75" stroke-linecap="round" stroke-linejoin="round"/>
<path d="M95.68 252C105.8 256.625 117.059 258.166 128.05 256.43" stroke="#7F7F7F" stroke-width="0.75" stroke-linecap="round" stroke-linejoin="round"/>
<path d="M122.75 127.82C123.783 127.37 124.768 126.817 125.69 126.17" stroke="#7F7F7F" stroke-width="0.75" stroke-linecap="round" stroke-linejoin="round"/>
<path d="M98.39 151.43C98.39 151.43 92.84 141.25 99.25 135.7C104.14 131.48 112.86 131.08 119.84 128.9" stroke="#7F7F7F" stroke-width="0.75" stroke-linecap="round" stroke-linejoin="round"/>
<path d="M103.06 144.2C102.748 143.275 102.697 142.281 102.912 141.329C103.127 140.376 103.601 139.501 104.28 138.8C108.09 135.18 119.21 134.8 124.75 129.29" stroke="#7F7F7F" stroke-width="0.75" stroke-linecap="round" stroke-linejoin="round"/>
<path d="M105.32 148.91C104.861 148.277 104.453 147.608 104.1 146.91" stroke="#7F7F7F" stroke-width="0.75" stroke-linecap="round" stroke-linejoin="round"/>
</svg>
